<svg id="Слой_1" data-name="Слой 1" xmlns="http://www.w3.org/2000/svg" viewBox="0 0 100.25 102.25"><defs><style>.cls-1{fill:#495467;}.cls-1,.cls-2,.cls-3{stroke:#495467;stroke-miterlimit:10;}.cls-1,.cls-2{stroke-width:3.5px;}.cls-2,.cls-3{fill:none;}.cls-3{stroke-width:0.75px;}.cls-4{fill:#495467;}</style></defs><line class="cls-1" x1="28.29" y1="63.92" x2="64.07" y2="3.12"/><line class="cls-2" x1="75.73" y1="65.97" x2="2.97" y2="64.97"/><line class="cls-2" x1="41.56" y1="98.01" x2="85.78" y2="33.52"/><line class="cls-2" x1="91.41" y1="88.57" x2="55.63" y2="24.48"/><line class="cls-2" x1="50.72" y1="91.03" x2="17.04" y2="17.91"/><line class="cls-2" x1="21.06" y1="32.7" x2="96.64" y2="38.04"/><line class="cls-3" x1="2.97" y1="64.97" x2="17.04" y2="17.91"/><line class="cls-3" x1="64.07" y1="3.12" x2="17.04" y2="17.91"/><line class="cls-3" x1="96.64" y1="38.04" x2="64.07" y2="3.12"/><line class="cls-3" x1="91.81" y1="86.51" x2="96.64" y2="38.04"/><line class="cls-3" x1="41.56" y1="98.01" x2="91.41" y2="88.57"/><line class="cls-3" x1="2.97" y1="64.97" x2="41.56" y2="98.01"/><line class="cls-3" x1="85.78" y1="33.52" x2="90.15" y2="86.31"/><line class="cls-3" x1="55.63" y1="24.48" x2="85.78" y2="33.52"/><line class="cls-3" x1="75.73" y1="65.97" x2="42.98" y2="95.95"/><line class="cls-3" x1="17.04" y1="17.91" x2="18.26" y2="20.56"/><line class="cls-3" x1="28.29" y1="63.92" x2="21.06" y2="32.7"/><line class="cls-3" x1="64.07" y1="3.12" x2="21.06" y2="32.7"/><line class="cls-3" x1="2.97" y1="64.97" x2="50.72" y2="91.03"/><line class="cls-3" x1="64.07" y1="3.12" x2="55.63" y2="24.48"/><line class="cls-3" x1="28.29" y1="63.92" x2="55.63" y2="24.48"/><line class="cls-3" x1="75.73" y1="65.97" x2="90.15" y2="86.31"/><line class="cls-3" x1="55.63" y1="24.48" x2="75.73" y2="65.97"/><line class="cls-3" x1="50.72" y1="91.03" x2="84.52" y2="35.37"/><line class="cls-3" x1="42.98" y1="95.95" x2="50.72" y2="91.03"/><path class="cls-4" d="M62.73,8.59c4.51,0,4.51-7,0-7s-4.51,7,0,7Z"/><path class="cls-4" d="M18.4,23.26c4.5,0,4.51-7,0-7s-4.51,7,0,7Z"/><path class="cls-4" d="M5.06,67.93c4.51,0,4.52-7,0-7s-4.51,7,0,7Z"/><path class="cls-4" d="M28.73,64.26c4.51,0,4.51-7,0-7s-4.51,7,0,7Z"/><path class="cls-4" d="M22.06,35.26c4.51,0,4.52-7,0-7s-4.51,7,0,7Z"/><path class="cls-4" d="M55.73,27.93c4.51,0,4.51-7,0-7s-4.51,7,0,7Z"/><path class="cls-4" d="M85.73,37.59c4.51,0,4.51-7,0-7s-4.51,7,0,7Z"/><path class="cls-4" d="M95.4,42.26c4.5,0,4.51-7,0-7s-4.51,7,0,7Z"/><path class="cls-4" d="M91.06,90.26c4.51,0,4.52-7,0-7s-4.51,7,0,7Z"/><path class="cls-4" d="M42.73,100.93c4.51,0,4.51-7,0-7s-4.51,7,0,7Z"/><path class="cls-4" d="M62.73,9.64c5.86,0,5.87-9.1,0-9.1s-5.86,9.1,0,9.1Z"/><path class="cls-4" d="M18.4,24.31c5.85,0,5.86-9.1,0-9.1s-5.87,9.1,0,9.1Z"/><path class="cls-4" d="M5.06,69c5.86,0,5.87-9.1,0-9.1S-.8,69,5.06,69Z"/><path class="cls-4" d="M28.73,65.31c5.86,0,5.87-9.1,0-9.1s-5.86,9.1,0,9.1Z"/><path class="cls-4" d="M22.06,36.31c5.86,0,5.87-9.1,0-9.1s-5.86,9.1,0,9.1Z"/><path class="cls-4" d="M55.73,29c5.86,0,5.87-9.1,0-9.1s-5.86,9.1,0,9.1Z"/><path class="cls-4" d="M85.73,38.64c5.86,0,5.87-9.1,0-9.1s-5.86,9.1,0,9.1Z"/><path class="cls-4" d="M95.4,43.31c5.85,0,5.86-9.1,0-9.1s-5.87,9.1,0,9.1Z"/><path class="cls-4" d="M91.06,91.31c5.86,0,5.87-9.1,0-9.1s-5.86,9.1,0,9.1Z"/><path class="cls-4" d="M42.73,102c5.86,0,5.87-9.1,0-9.1s-5.86,9.1,0,9.1Z"/><path class="cls-4" d="M51.06,94c5.86,0,5.87-9.1,0-9.1s-5.86,9.1,0,9.1Z"/><path class="cls-4" d="M75.4,70c5.85,0,5.86-9.1,0-9.1s-5.87,9.1,0,9.1Z"/></svg>