<svg xmlns="http://www.w3.org/2000/svg" viewBox="0 0 536.97 101.43"><defs><style>.cls-1{fill:#1d71b8;}.cls-1,.cls-2,.cls-3{stroke:#94a6cc;}.cls-1,.cls-2,.cls-3,.cls-5{stroke-miterlimit:10;}.cls-1,.cls-2{stroke-width:3.5px;}.cls-2,.cls-3{fill:none;}.cls-3{stroke-width:0.75px;}.cls-4{fill:#94a6cc;}.cls-5{fill:#97aec9;stroke:#7982b2;stroke-width:2px;}</style></defs><g id="Слой_2" data-name="Слой 2"><g id="Слой_1-2" data-name="Слой 1"><line class="cls-1" x1="465.47" y1="63.38" x2="501.25" y2="2.58"/><line class="cls-2" x1="512.91" y1="65.43" x2="440.14" y2="64.43"/><line class="cls-2" x1="478.74" y1="97.47" x2="522.96" y2="32.98"/><line class="cls-2" x1="528.59" y1="88.02" x2="492.81" y2="23.94"/><line class="cls-2" x1="487.89" y1="90.49" x2="454.21" y2="17.37"/><line class="cls-2" x1="458.23" y1="32.16" x2="533.81" y2="37.5"/><line class="cls-3" x1="440.14" y1="64.43" x2="454.21" y2="17.37"/><line class="cls-3" x1="501.25" y1="2.58" x2="454.21" y2="17.37"/><line class="cls-3" x1="533.81" y1="37.5" x2="501.25" y2="2.58"/><line class="cls-3" x1="528.99" y1="85.97" x2="533.81" y2="37.5"/><line class="cls-3" x1="478.74" y1="97.47" x2="528.59" y2="88.02"/><line class="cls-3" x1="440.14" y1="64.43" x2="478.74" y2="97.47"/><line class="cls-3" x1="522.96" y1="32.98" x2="527.33" y2="85.77"/><line class="cls-3" x1="492.81" y1="23.94" x2="522.96" y2="32.98"/><line class="cls-3" x1="512.91" y1="65.43" x2="480.15" y2="95.4"/><line class="cls-3" x1="454.21" y1="17.37" x2="455.43" y2="20.02"/><line class="cls-3" x1="465.47" y1="63.38" x2="458.23" y2="32.16"/><line class="cls-3" x1="501.25" y1="2.58" x2="458.23" y2="32.16"/><line class="cls-3" x1="440.14" y1="64.43" x2="487.89" y2="90.49"/><line class="cls-3" x1="501.25" y1="2.58" x2="492.81" y2="23.94"/><line class="cls-3" x1="465.47" y1="63.38" x2="492.81" y2="23.94"/><line class="cls-3" x1="512.91" y1="65.43" x2="527.33" y2="85.77"/><line class="cls-3" x1="492.81" y1="23.94" x2="512.91" y2="65.43"/><line class="cls-3" x1="487.89" y1="90.49" x2="521.69" y2="34.83"/><line class="cls-3" x1="480.15" y1="95.4" x2="487.89" y2="90.49"/><path class="cls-4" d="M501,8.05c4.5,0,4.51-7,0-7s-4.51,7,0,7Z" transform="translate(-1.06)"/><path class="cls-4" d="M456.63,22.72c4.51,0,4.52-7,0-7s-4.51,7,0,7Z" transform="translate(-1.06)"/><path class="cls-4" d="M443.3,67.38c4.51,0,4.51-7,0-7s-4.51,7,0,7Z" transform="translate(-1.06)"/><path class="cls-4" d="M467,63.72c4.5,0,4.51-7,0-7s-4.51,7,0,7Z" transform="translate(-1.06)"/><path class="cls-4" d="M460.3,34.72c4.51,0,4.51-7,0-7s-4.51,7,0,7Z" transform="translate(-1.06)"/><path class="cls-4" d="M494,27.38c4.5,0,4.51-7,0-7s-4.51,7,0,7Z" transform="translate(-1.06)"/><path class="cls-4" d="M524,37.05c4.5,0,4.51-7,0-7s-4.51,7,0,7Z" transform="translate(-1.06)"/><path class="cls-4" d="M533.63,41.72c4.51,0,4.52-7,0-7s-4.51,7,0,7Z" transform="translate(-1.06)"/><path class="cls-4" d="M529.3,89.72c4.51,0,4.51-7,0-7s-4.51,7,0,7Z" transform="translate(-1.06)"/><path class="cls-4" d="M481,100.38c4.5,0,4.51-7,0-7s-4.51,7,0,7Z" transform="translate(-1.06)"/><path class="cls-4" d="M501,9.1c5.85,0,5.86-9.1,0-9.1s-5.87,9.1,0,9.1Z" transform="translate(-1.06)"/><path class="cls-4" d="M456.63,23.77c5.86,0,5.87-9.1,0-9.1s-5.86,9.1,0,9.1Z" transform="translate(-1.06)"/><path class="cls-4" d="M443.3,68.43c5.86,0,5.87-9.1,0-9.1s-5.86,9.1,0,9.1Z" transform="translate(-1.06)"/><path class="cls-4" d="M467,64.77c5.85,0,5.86-9.1,0-9.1s-5.87,9.1,0,9.1Z" transform="translate(-1.06)"/><path class="cls-4" d="M460.3,35.77c5.86,0,5.87-9.1,0-9.1s-5.86,9.1,0,9.1Z" transform="translate(-1.06)"/><path class="cls-4" d="M494,28.43c5.85,0,5.86-9.1,0-9.1s-5.87,9.1,0,9.1Z" transform="translate(-1.06)"/><path class="cls-4" d="M524,38.1c5.85,0,5.86-9.1,0-9.1s-5.87,9.1,0,9.1Z" transform="translate(-1.06)"/><path class="cls-4" d="M533.63,42.77c5.86,0,5.87-9.1,0-9.1s-5.86,9.1,0,9.1Z" transform="translate(-1.06)"/><path class="cls-4" d="M529.3,90.77c5.86,0,5.87-9.1,0-9.1s-5.86,9.1,0,9.1Z" transform="translate(-1.06)"/><path class="cls-4" d="M481,101.43c5.85,0,5.86-9.1,0-9.1s-5.87,9.1,0,9.1Z" transform="translate(-1.06)"/><path class="cls-4" d="M489.3,93.43c5.86,0,5.87-9.1,0-9.1s-5.86,9.1,0,9.1Z" transform="translate(-1.06)"/><path class="cls-4" d="M513.63,69.43c5.86,0,5.87-9.1,0-9.1s-5.86,9.1,0,9.1Z" transform="translate(-1.06)"/><path class="cls-5" d="M15.34,40.12H2.06V30.78H39.93v9.34H26.46V80H15.34Z" transform="translate(-1.06)"/><path class="cls-5" d="M75,59.17H56.94v11.7H77.18V80H45.82V30.78H76.13V39.9H56.94V50.14H75Z" transform="translate(-1.06)"/><path class="cls-5" d="M84.79,80V30.78h13l10.22,18a140.31,140.31,0,0,1,8,16.88l.19,0a195.91,195.91,0,0,1-.89-20.55V30.78h10.21V80H113.86L103.31,61a182.17,182.17,0,0,1-8.55-17.39l-.24,0c.34,6.52.48,13.48.48,21.52V80Z" transform="translate(-1.06)"/><path class="cls-5" d="M135.56,68.5a27.46,27.46,0,0,0,12.33,3.09c5.11,0,7.82-2.12,7.82-5.36,0-3-2.35-4.8-8.24-6.87C139.26,56.44,133.9,52,133.9,44.78c0-8.39,7-14.76,18.61-14.76a29.19,29.19,0,0,1,12.56,2.47l-2.46,8.92a23.62,23.62,0,0,0-10.27-2.33c-4.84,0-7.15,2.24-7.15,4.76,0,3.12,2.72,4.5,9.1,6.91C163,54,167,58.53,167,65.49c0,8.21-6.29,15.26-19.84,15.26-5.57,0-11.15-1.52-13.89-3.06Z" transform="translate(-1.06)"/><path class="cls-5" d="M203.84,59.17h-18.1v11.7H206V80H174.62V30.78h30.31V39.9H185.74V50.14h18.1Z" transform="translate(-1.06)"/><path class="cls-5" d="M254.67,77.71a54.57,54.57,0,0,1-16.43,2.77c-9,0-15.47-2.25-20-6.6s-7-10.68-7-17.91c.05-16.37,12-25.68,28.09-25.68,6.35,0,11.24,1.21,13.68,2.36l-2.33,8.92a27.13,27.13,0,0,0-11.44-2.09C230,39.48,223,44.69,223,55.39c0,10.16,6.41,16.11,15.52,16.11a16,16,0,0,0,5.44-.69V60.47h-7.6V51.79h18.35Z" transform="translate(-1.06)"/><path class="cls-5" d="M263.35,31.46a93.36,93.36,0,0,1,14.79-1.06c7.3,0,12.41,1.11,15.92,3.9,2.94,2.33,4.55,5.79,4.55,10.31a13,13,0,0,1-8.68,12.09v.24c3.41,1.37,5.33,4.64,6.57,9.16,1.52,5.57,3,12,4,13.88H289.08c-.75-1.42-2-5.37-3.38-11.46s-3.44-7.8-8-7.85h-3.31V80h-11Zm11,21.16h4.35c5.52,0,8.82-2.82,8.82-7.09,0-4.51-3.08-6.81-8.16-6.84a23,23,0,0,0-5,.37Z" transform="translate(-1.06)"/><path class="cls-5" d="M317.78,30.78V80H306.66V30.78Z" transform="translate(-1.06)"/><path class="cls-5" d="M337,40.12H323.69V30.78h37.87v9.34H348.1V80H337Z" transform="translate(-1.06)"/><path class="cls-5" d="M379.3,80V59.81l-15.54-29H376.5l5,11.84c1.51,3.53,2.59,6.17,3.8,9.42h.14c1.1-3.06,2.29-5.95,3.71-9.43l5-11.83h12.54L390.42,59.44V80Z" transform="translate(-1.06)"/></g></g></svg>