<svg xmlns="http://www.w3.org/2000/svg" viewBox="0 0 505.46 121.46"><defs><style>.cls-1,.cls-2,.cls-3,.cls-4{fill:none;}.cls-1,.cls-2,.cls-3,.cls-4,.cls-5{stroke:#89afc6;stroke-miterlimit:10;}.cls-1{stroke-width:1.5px;}.cls-3{stroke-width:1.2px;}.cls-4{stroke-width:1.3px;}.cls-5,.cls-6{fill:#89afc6;}</style></defs><g><g><path class="cls-1" d="M460.7,6,413,39.14"/><path class="cls-2" d="M416.21,71.63,452,29.69"/><path class="cls-2" d="M460.76,6.1l-8.88,23.66"/><path class="cls-2" d="M451.88,29.76,499.5,46.37"/><path class="cls-1" d="M491.43,104.44l-5.35-63"/><path class="cls-1" d="M476.74,78.3,435,115.81"/><path class="cls-1" d="M387.44,79.48l59.22,26"/><path class="cls-3" d="M414.49,72.85q-4.33-24.51-8.68-49"/><line class="cls-2" x1="387.44" y1="79.48" x2="416.14" y2="72.35"/><line class="cls-2" x1="477.6" y1="78.29" x2="416.14" y2="72.35"/><path class="cls-4" d="M460.63,5.7Q480.12,26,499.58,46.39q-4,29.08-8,58.18l-56.92,10.69L387,79.64q9.23-28.11,18.44-56.21Z"/><path class="cls-5" d="M14.47,49.69H.5v-5h34v5H20.47v40.9h-6Z"/><path class="cls-5" d="M63.42,69.05H45.56V85.61H65.47v5H39.63V44.65H64.44v5H45.56V64.14H63.42Z"/><path class="cls-5" d="M73.17,90.59V44.65h6.47L94.37,67.89a130.34,130.34,0,0,1,8.25,14.93l.13-.07c-.54-6.13-.68-11.72-.68-18.88V44.65h5.59V90.59h-6L87.07,67.28a146.35,146.35,0,0,1-8.59-15.34l-.2.07c.34,5.79.48,11.31.48,18.95V90.59Z"/><path class="cls-5" d="M117.2,83.37a21.1,21.1,0,0,0,10.64,3c6.07,0,9.61-3.21,9.61-7.84,0-4.3-2.45-6.75-8.66-9.14-7.5-2.66-12.13-6.54-12.13-13,0-7.16,5.93-12.47,14.86-12.47a20.9,20.9,0,0,1,10.16,2.25L140,51a18.27,18.27,0,0,0-8.73-2.19c-6.27,0-8.65,3.75-8.65,6.89,0,4.29,2.79,6.41,9.13,8.86,7.77,3,11.73,6.75,11.73,13.5,0,7.09-5.25,13.22-16.09,13.22-4.43,0-9.27-1.29-11.73-2.93Z"/><path class="cls-5" d="M175.42,69.05H157.56V85.61h19.91v5H151.63V44.65h24.81v5H157.56V64.14h17.86Z"/><path class="cls-5" d="M220.14,88.55A43,43,0,0,1,206,91.07c-7,0-12.68-1.77-17.18-6.07-3.95-3.82-6.41-10-6.41-17.11.07-13.7,9.48-23.72,24.88-23.72a28.54,28.54,0,0,1,11.46,2.11l-1.44,4.84a23.81,23.81,0,0,0-10.15-2c-11.18,0-18.48,7-18.48,18.47s7,18.54,17.73,18.54c3.88,0,6.54-.55,7.9-1.23V71.23H205V66.46h15.13Z"/><path class="cls-5" d="M229.21,45.26a62.07,62.07,0,0,1,11.38-.95c6.34,0,10.43,1.15,13.29,3.74a11.46,11.46,0,0,1,3.62,8.73c0,6.07-3.82,10.09-8.66,11.72v.21c3.54,1.23,5.66,4.5,6.75,9.27,1.5,6.41,2.59,10.84,3.54,12.61H253c-.75-1.29-1.78-5.25-3.07-11-1.36-6.34-3.82-8.73-9.2-8.93h-5.59v19.9h-5.93Zm5.93,20.93h6.06c6.34,0,10.37-3.48,10.37-8.73,0-5.93-4.3-8.52-10.57-8.59a24.43,24.43,0,0,0-5.86.55Z"/><path class="cls-5" d="M271.81,44.65V90.59h-5.93V44.65Z"/><path class="cls-5" d="M290.9,49.69h-14v-5h34v5h-14v40.9h-6Z"/><path class="cls-5" d="M328.19,90.59V71.1L313.67,44.65h6.75l6.47,12.68c1.77,3.47,3.14,6.27,4.57,9.47h.14c1.29-3,2.86-6,4.63-9.47l6.61-12.68h6.75L334.19,71V90.59Z"/><polygon class="cls-5" points="492.76 103.14 488.78 105.16 451.58 29.79 452.19 29.5 492.76 103.14"/><polygon class="cls-5" points="388.26 76.24 387.59 78.5 389.91 80.5 476.58 78.69 476.21 78.11 388.26 76.24"/><path class="cls-5" d="M456.87,6.91,460.58,6l1.59,1.46L416.72,72.62l-.68.12-.39-.95Z"/><polygon class="cls-5" points="416.18 36.18 413.89 37.96 415.35 40.3 500.08 46.02 499.29 44.72 416.18 36.18"/><path class="cls-5" d="M484.17,41.65l3.69,1.87-52.7,72.57-1-.71Z"/><polygon class="cls-5" points="447.4 104.27 446.28 105.39 443.57 104.2 405.61 24 406.62 23.37 447.4 104.27"/><circle class="cls-6" cx="460.03" cy="6.37" r="6.37"/><circle class="cls-6" cx="415.65" cy="38.07" r="4.98"/><circle class="cls-6" cx="484.55" cy="43.07" r="4.98"/><circle class="cls-6" cx="444.49" cy="100.94" r="5.02"/><circle class="cls-6" cx="475.74" cy="78.11" r="5.1"/><circle class="cls-6" cx="415.65" cy="72.31" r="4.92"/><circle class="cls-6" cx="453.19" cy="30.59" r="4.85"/><circle class="cls-6" cx="499.1" cy="45.74" r="6.37"/><circle class="cls-6" cx="489.42" cy="102.39" r="6.37"/><circle class="cls-6" cx="434.72" cy="115.09" r="6.37"/><circle class="cls-6" cx="389.34" cy="78.75" r="6.37"/><circle class="cls-6" cx="405.66" cy="23.55" r="6.37"/></g></g></svg>