<svg xmlns="http://www.w3.org/2000/svg" viewBox="0 0 123.49 122.46"><defs><style>.cls-1,.cls-2,.cls-3,.cls-4{fill:none;}.cls-1,.cls-3,.cls-4,.cls-5{stroke:#e9eef7;}.cls-1,.cls-2,.cls-3,.cls-4,.cls-5{stroke-miterlimit:10;}.cls-1{stroke-width:1.5px;}.cls-2{stroke:#eaeef7;}.cls-3{stroke-width:1.2px;}.cls-4{stroke-width:1.3px;}.cls-5{fill:#eaeef7;}</style></defs><title>Piece Bright</title><g id="Слой_2" data-name="Слой 2"><g id="Слой_4" data-name="Слой 4"><path class="cls-1" d="M78.23,6.45,30.5,39.64"/><path class="cls-2" d="M33.74,72.13,69.49,30.19"/><path class="cls-2" d="M78.29,6.6,69.41,30.26"/><path class="cls-2" d="M69.41,30.26,117,46.87"/><path class="cls-1" d="M109,104.94l-5.35-63"/><path class="cls-1" d="M94.27,78.8l-41.7,37.51"/><path class="cls-1" d="M5,80l59.22,26"/><path class="cls-3" d="M32,73.35q-4.34-24.51-8.68-49"/><line class="cls-2" x1="4.97" y1="79.98" x2="33.67" y2="72.85"/><line class="cls-2" x1="95.13" y1="78.79" x2="33.67" y2="72.85"/><path class="cls-4" d="M78.16,6.2q19.49,20.34,39,40.69-4,29.08-8,58.18L52.2,115.76,4.54,80.14Q13.77,52,23,23.93Z"/><polygon class="cls-5" points="110.29 103.64 106.31 105.66 69.11 30.29 69.72 30 110.29 103.64"/><polygon class="cls-5" points="5.79 76.74 5.12 79 7.44 81 94.11 79.19 93.74 78.61 5.79 76.74"/><path class="cls-5" d="M74.4,7.41l3.71-.91L79.7,8,34.25,73.12l-.68.12-.39-.95Z"/><polygon class="cls-5" points="33.71 36.68 31.42 38.46 32.88 40.8 117.61 46.52 116.82 45.22 33.71 36.68"/><path class="cls-5" d="M101.7,42.15,105.39,44l-52.7,72.57-.95-.71Z"/><polygon class="cls-5" points="64.93 104.77 63.81 105.89 61.1 104.7 23.14 24.5 24.15 23.87 64.93 104.77"/><circle class="cls-5" cx="77.56" cy="6.87" r="6.37"/><circle class="cls-5" cx="33.18" cy="38.57" r="4.98"/><circle class="cls-5" cx="102.08" cy="43.57" r="4.98"/><circle class="cls-5" cx="62.02" cy="101.44" r="5.02"/><circle class="cls-5" cx="93.27" cy="78.61" r="5.1"/><circle class="cls-5" cx="33.18" cy="72.81" r="4.92"/><circle class="cls-5" cx="70.72" cy="31.09" r="4.85"/><circle class="cls-5" cx="116.63" cy="46.24" r="6.37"/><circle class="cls-5" cx="106.95" cy="102.89" r="6.37"/><circle class="cls-5" cx="52.25" cy="115.59" r="6.37"/><circle class="cls-5" cx="6.87" cy="79.25" r="6.37"/><circle class="cls-5" cx="23.19" cy="24.05" r="6.37"/></g></g></svg>