<svg xmlns="http://www.w3.org/2000/svg" viewBox="0 0 122.49 121.46"><defs><style>.cls-1,.cls-2,.cls-3,.cls-4{fill:none;}.cls-1,.cls-2,.cls-3,.cls-4,.cls-5{stroke:#218cca;stroke-miterlimit:10;}.cls-1{stroke-width:1.5px;}.cls-3{stroke-width:1.2px;}.cls-4{stroke-width:1.3px;}.cls-5,.cls-6{fill:#218cca;}</style></defs><title>Ресурс 5</title><g id="Слой_2" data-name="Слой 2"><g id="Слой_4" data-name="Слой 4"><path class="cls-1" d="M77.73,6,30,39.14"/><path class="cls-2" d="M33.24,71.63,69,29.69"/><path class="cls-2" d="M77.79,6.1,68.91,29.76"/><path class="cls-2" d="M68.91,29.76l47.62,16.61"/><path class="cls-1" d="M108.46,104.44l-5.35-63"/><path class="cls-1" d="M93.77,78.3l-41.7,37.51"/><path class="cls-1" d="M4.47,79.48l59.22,26"/><path class="cls-3" d="M31.52,72.85q-4.34-24.51-8.68-49"/><line class="cls-2" x1="4.47" y1="79.48" x2="33.17" y2="72.35"/><line class="cls-2" x1="94.63" y1="78.29" x2="33.17" y2="72.35"/><path class="cls-4" d="M77.66,5.7q19.49,20.34,39,40.69-4,29.08-8,58.18L51.7,115.26,4,79.64q9.23-28.11,18.44-56.21Z"/><polygon class="cls-5" points="109.79 103.14 105.81 105.16 68.61 29.79 69.22 29.5 109.79 103.14"/><polygon class="cls-5" points="5.29 76.24 4.62 78.5 6.94 80.5 93.61 78.69 93.24 78.11 5.29 76.24"/><path class="cls-5" d="M73.9,6.91,77.61,6,79.2,7.46,33.75,72.62l-.68.12-.39-.95Z"/><polygon class="cls-5" points="33.21 36.18 30.92 37.96 32.38 40.3 117.11 46.02 116.32 44.72 33.21 36.18"/><path class="cls-5" d="M101.2,41.65l3.69,1.87-52.7,72.57-.95-.71Z"/><polygon class="cls-5" points="64.43 104.27 63.31 105.39 60.6 104.2 22.64 24 23.65 23.37 64.43 104.27"/><circle class="cls-6" cx="77.06" cy="6.37" r="6.37"/><circle class="cls-6" cx="32.68" cy="38.07" r="4.98"/><circle class="cls-6" cx="101.58" cy="43.07" r="4.98"/><circle class="cls-6" cx="61.52" cy="100.94" r="5.02"/><circle class="cls-6" cx="92.77" cy="78.11" r="5.1"/><circle class="cls-6" cx="32.68" cy="72.31" r="4.92"/><circle class="cls-6" cx="70.22" cy="30.59" r="4.85"/><circle class="cls-6" cx="116.13" cy="45.74" r="6.37"/><circle class="cls-6" cx="106.45" cy="102.39" r="6.37"/><circle class="cls-6" cx="51.75" cy="115.09" r="6.37"/><circle class="cls-6" cx="6.37" cy="78.75" r="6.37"/><circle class="cls-6" cx="22.69" cy="23.55" r="6.37"/></g></g></svg>